<?xml version="1.0" encoding="utf-8"?>
<!-- Generator: Adobe Illustrator 24.1.2, SVG Export Plug-In . SVG Version: 6.00 Build 0)  -->
<svg version="1.1" id="Calque_1" xmlns="http://www.w3.org/2000/svg" xmlns:xlink="http://www.w3.org/1999/xlink" x="0px" y="0px"
	 viewBox="0 0 284 355" style="enable-background:new 0 0 284 355;" xml:space="preserve">
<style type="text/css">
	.st0{fill:none;stroke:#00326E;stroke-width:3;stroke-linecap:round;stroke-linejoin:round;}
</style>
<path class="st0" d="M147.1,81.7c6.5,0.1,12.9,1.1,19.1,3c0,0,54.8,19.2,41.4,89.4c0.7-0.3,1.5-0.5,2.3-0.5c2.7,0,6.4,2.4,2.8,17.5
	c-4.5,19.5-12.2,20.7-14.1,20.7h-0.4c0,0-1,18.2-17.7,37.9c0,0.2,0,0.3,0,0.5c-13.1,13.3-26.4,19.8-39.8,19.3
	c-16.6-0.7-29.8-12-36.3-18.9c0-0.1,0-0.2,0-0.4c-17.3-19.9-18.3-38.4-18.3-38.4h-0.4c-1.8,0-9.5-1.2-14.1-20.7
	c-3.5-15.1,0.2-17.5,2.9-17.5c0.8,0,1.6,0.2,2.3,0.5c-13.5-70.2,41.4-89.3,41.4-89.3c6.2-1.9,12.6-2.9,19.1-3L147.1,81.7z"/>
<path class="st0" d="M179.7,251.5c0,5.4,0.4,13.5,1.4,16.1c3.1,8.3,38.2,17,52.6,19.6c14.5,2.6,32.5,8.3,43.9,38.2
	c5.7,15-64.8,22.5-135.2,22.5S1.5,340.4,7.2,325.4c11.4-29.9,29.4-35.6,43.9-38.2s49.5-11.4,52.6-19.6c0.9-2.5,1.3-11.4,1.3-16.6"/>
</svg>
