<svg id="Calque_1" data-name="Calque 1" xmlns="http://www.w3.org/2000/svg" viewBox="0 0 183.7 180.41"><defs><style>.cls-1{fill:none;stroke:#00326e;stroke-linecap:round;stroke-linejoin:round;stroke-width:3px;}</style></defs><path class="cls-1" d="M102.69,11.13a44.31,44.31,0,0,1,12.74,2S151.94,25.92,143,72.71a3.93,3.93,0,0,1,1.54-.34c1.8,0,4.26,1.6,1.9,11.69-3,13-8.16,13.79-9.37,13.79h-.26S136.16,110,125,123.14c0,.11,0,.22,0,.32-8.73,8.87-17.62,13.17-26.54,12.84-11.1-.46-19.86-8-24.21-12.61a1.94,1.94,0,0,1,0-.24C62.74,110.2,62.06,97.84,62.06,97.84H61.8c-1.21,0-6.35-.8-9.37-13.79-2.34-10.09.11-11.69,1.92-11.69a3.91,3.91,0,0,1,1.53.34c-9-46.79,27.57-59.53,27.57-59.53a44.2,44.2,0,0,1,12.73-2Z" transform="translate(-7.7 -9.63)"/><path class="cls-1" d="M124.44,124.29c0,3.57.27,9,.91,10.73,2.06,5.51,25.45,11.36,35.09,13.08s21.69,5.51,29.25,25.46c3.79,10-43.17,15-90.13,15s-93.93-5-90.14-15C17,153.61,29,149.82,38.67,148.1s33-7.57,35.09-13.08c.63-1.65.86-7.63.9-11.1" transform="translate(-7.7 -9.63)"/></svg>